<?xml version="1.0" encoding="UTF-8"?>
<svg id="Layer_1" xmlns="http://www.w3.org/2000/svg" viewBox="0 0 1024 100">
  <g>
    <path d="M164.07,39.78c-6.99,0-12.25,4.81-12.25,11.89s5.27,11.62,12.25,11.62c5.63,0,11.62-1.72,15.43-4.18v13.52c-4.45,2.63-10.8,4.08-15.61,4.08-15.25,0-26.5-9.89-26.5-24.96s11.26-25.42,26.5-25.42c5.72,0,11.16,1.72,15.61,4.63v13.16c-3.81-2.54-10.53-4.36-15.43-4.36Z" fill="#d8eff5"/>
    <path d="M194.65,9.19h14.7v66.44h-14.7V9.19Z" fill="#d8eff5"/>
    <path d="M221.88,51.58c0-14.79,10.89-25.23,25.96-25.23s25.96,10.53,25.96,25.23-11.07,25.14-25.96,25.14-25.96-10.53-25.96-25.14ZM259.91,51.58c0-7.26-5.08-12.07-12.07-12.07s-11.98,4.81-11.98,12.07,4.9,11.98,11.98,11.98,12.07-4.99,12.07-11.98Z" fill="#d8eff5"/>
    <path d="M300.12,27.44v27.23c0,5.36,3.9,8.53,8.53,8.53s8.53-3.18,8.53-8.53v-27.23h14.7v25.32c0,13.07-8.9,23.87-23.24,23.87s-23.24-10.8-23.24-23.87v-25.32h14.7Z" fill="#d8eff5"/>
    <path d="M382.99,75.64l-.09-8.08c-2,4.63-8.08,8.71-15.34,8.71-14.8,0-24.05-10.26-24.05-24.69s9.53-24.6,23.42-24.6c5.26,0,11.16,2.45,14.25,6.72V9.19h14.7v66.44h-12.89ZM369.46,39.6c-6.9,0-11.89,4.9-11.89,12.07s4.99,11.89,11.89,11.89,12.07-4.99,12.07-11.89-4.99-12.07-12.07-12.07Z" fill="#d8eff5"/>
    <path d="M437.17,12.28c0-4.9,3.99-8.71,9.08-8.71s9.08,3.81,9.08,8.71-3.99,8.8-9.08,8.8-9.08-3.81-9.08-8.8ZM438.89,27.44h14.7v48.2h-14.7V27.44Z" fill="#d8eff5"/>
    <path d="M471.2,27.44h14.34l.18,6.63c2.54-4.27,8.08-7.35,13.98-7.35,14.98,0,18.79,10.26,18.79,23.42v25.51h-14.7v-26.96c0-13.07-17.88-11.8-17.88.64v26.32h-14.7V27.44Z" fill="#d8eff5"/>
    <path d="M530.02,27.44h6.72v-7.08l14.7-1.54v8.62h6.81v11.35h-6.81v18.06c0,4.63.82,9.26,5.72,7.99v11.44c-14.43,1.27-20.42-8.08-20.42-20.06v-17.43h-6.72v-11.35Z" fill="#d8eff5"/>
    <path d="M595.64,76.72c-16.16,0-26.23-11.35-25.78-26.5.45-13.71,11.07-23.96,25.6-23.96,15.25,0,26.5,9.17,24.51,28.5h-35.76c.73,13.07,22.15,13.25,35.13,2.81v10.35c-6.9,5.9-14.52,8.8-23.69,8.8ZM584.2,45.77h22.51c-1-11.07-20.97-10.71-22.51,0Z" fill="#d8eff5"/>
    <path d="M634.94,9.19h14.7v66.44h-14.7V9.19Z" fill="#d8eff5"/>
    <path d="M663.89,9.19h14.7v66.44h-14.7V9.19Z" fill="#d8eff5"/>
    <path d="M693.75,12.28c0-4.9,3.99-8.71,9.08-8.71s9.08,3.81,9.08,8.71-3.99,8.8-9.08,8.8-9.08-3.81-9.08-8.8ZM695.48,27.44h14.7v48.2h-14.7V27.44Z" fill="#d8eff5"/>
    <path d="M724.79,88.16v-15.61c10.53,14.98,37.85,17.52,37.85,3.54v-7.35c-13.62,13.25-38.94,5.63-38.94-17.16,0-14.43,9.44-25.23,23.24-25.23,7.26,0,14.07,3.72,17.25,9.17l.09-8.08h12.98v46.93c0,13.98-9.98,23.15-27.05,23.15-9.8,0-18.43-3.36-25.41-9.35ZM762.64,51.31c0-7.44-5.17-12.35-12.34-12.35s-12.25,4.9-12.25,12.35,5.08,12.34,12.25,12.34,12.34-5.17,12.34-12.34Z" fill="#d8eff5"/>
    <path d="M815.92,76.72c-16.16,0-26.23-11.35-25.78-26.5.45-13.71,11.07-23.96,25.6-23.96,15.25,0,26.5,9.17,24.51,28.5h-35.76c.73,13.07,22.15,13.25,35.13,2.81v10.35c-6.9,5.9-14.52,8.8-23.69,8.8ZM804.48,45.77h22.51c-1-11.07-20.97-10.71-22.51,0Z" fill="#d8eff5"/>
    <path d="M855.03,27.44h14.34l.18,6.63c2.54-4.27,8.08-7.35,13.98-7.35,14.98,0,18.79,10.26,18.79,23.42v25.51h-14.7v-26.96c0-13.07-17.88-11.8-17.88.64v26.32h-14.7V27.44Z" fill="#d8eff5"/>
    <path d="M941.89,39.78c-6.99,0-12.25,4.81-12.25,11.89s5.26,11.62,12.25,11.62c5.63,0,11.62-1.72,15.43-4.18v13.52c-4.45,2.63-10.8,4.08-15.61,4.08-15.25,0-26.5-9.89-26.5-24.96s11.25-25.42,26.5-25.42c5.72,0,11.16,1.72,15.61,4.63v13.16c-3.81-2.54-10.53-4.36-15.43-4.36Z" fill="#d8eff5"/>
    <path d="M995.44,76.72c-16.16,0-26.23-11.35-25.78-26.5.45-13.71,11.07-23.96,25.6-23.96,15.25,0,26.5,9.17,24.51,28.5h-35.76c.73,13.07,22.15,13.25,35.13,2.81v10.35c-6.9,5.9-14.52,8.8-23.69,8.8ZM984.01,45.77h22.51c-1-11.07-20.97-10.71-22.51,0Z" fill="#d8eff5"/>
  </g>
  <g>
    <path d="M88.15,78.41H9.47s0-10.29,0-10.29H2.79s0-54.5,0-54.5h6.68s0-10.13,0-10.13h78.68s0,10.13,0,10.13h6.68s0,54.5,0,54.5h-6.68s0,10.29,0,10.29ZM17.85,70.04h61.94s0-10.29,0-10.29h6.68s0-37.76,0-37.76h-6.68v-10.13s-61.94,0-61.94,0v10.13h-6.68s0,37.76,0,37.76h6.68v10.29Z" fill="#d8eff5"/>
    <g>
      <polygon points="29.92 29.03 29.92 52.71 48.86 52.71 48.86 62.19 25.18 62.19 25.18 52.71 20.44 52.71 20.44 29.03 25.18 29.03 25.18 19.56 48.86 19.56 48.86 29.03 29.92 29.03" fill="#d8eff5"/>
      <polygon points="67.81 29.03 67.81 52.71 72.54 52.71 72.54 62.19 53.6 62.19 53.6 52.71 58.33 52.71 58.33 29.03 53.6 29.03 53.6 19.56 72.54 19.56 72.54 29.03 67.81 29.03" fill="#d8eff5"/>
    </g>
  </g>
</svg>